# Blender v3.0.0 OBJ File: 'street_crossing.blend'
# www.blender.org
o Circle.001
v -1.500000 0.100000 -2.500000
v -2.500000 0.100000 -1.500000
v -2.500000 0.200000 -1.500000
v -2.500000 0.200000 -2.500000
v -1.576120 0.200000 -2.117316
v -1.792893 0.200000 -1.792893
v -2.117316 0.200000 -1.576121
v -1.500000 0.200000 -2.500000
v -2.117316 0.100000 -1.576121
v -1.792893 0.100000 -1.792893
v -1.576120 0.100000 -2.117316
v 1.500000 0.100000 -2.500000
v 2.500000 0.100000 -1.500000
v 2.500000 0.200000 -1.500000
v 2.500000 0.200000 -2.500000
v 1.576120 0.200000 -2.117316
v 1.792893 0.200000 -1.792894
v 2.117316 0.200000 -1.576121
v 1.500000 0.200000 -2.500000
v 2.117316 0.100000 -1.576121
v 1.792893 0.100000 -1.792894
v 1.576120 0.100000 -2.117316
v -1.500000 0.100000 2.500000
v -2.500000 0.100000 1.500000
v -2.500000 0.200000 1.500000
v -2.500000 0.200000 2.500000
v -1.576120 0.200000 2.117316
v -1.792893 0.200000 1.792893
v -2.117316 0.200000 1.576121
v -1.500000 0.200000 2.500000
v -2.117316 0.100000 1.576121
v -1.792893 0.100000 1.792893
v -1.576120 0.100000 2.117316
v 1.500000 0.100000 2.500000
v 2.500000 0.100000 1.500000
v 2.500000 0.200000 1.500000
v 2.500000 0.200000 2.500000
v 1.576120 0.200000 2.117316
v 1.792894 0.200000 1.792893
v 2.117316 0.200000 1.576121
v 1.500000 0.200000 2.500000
v 2.117316 0.100000 1.576121
v 1.792894 0.100000 1.792893
v 1.576120 0.100000 2.117316
v -0.000000 0.100000 -0.000000
vt 0.839093 0.118721
vt 0.789345 0.135002
vt 0.833598 0.106745
vt 0.888137 0.103267
vt 0.883939 0.090365
vt 0.888137 0.243045
vt 0.798296 0.145247
vt 0.767266 0.184240
vt 0.746771 0.234205
vt 0.732866 0.228382
vt 0.755248 0.176855
vt 0.667426 0.373311
vt 0.661931 0.385288
vt 0.617678 0.357031
vt 0.716470 0.388766
vt 0.712272 0.401668
vt 0.716470 0.248988
vt 0.626629 0.346785
vt 0.595599 0.307793
vt 0.575104 0.257828
vt 0.561199 0.263650
vt 0.583581 0.315178
vt 0.822697 0.373311
vt 0.817202 0.385288
vt 0.772949 0.357031
vt 0.871741 0.388766
vt 0.867543 0.401668
vt 0.871741 0.248988
vt 0.781900 0.346785
vt 0.750870 0.307793
vt 0.730375 0.257828
vt 0.716470 0.263650
vt 0.738852 0.315178
vt 0.675233 0.113282
vt 0.625486 0.129562
vt 0.669739 0.101305
vt 0.724278 0.097827
vt 0.720080 0.084925
vt 0.724278 0.237606
vt 0.634437 0.139808
vt 0.603407 0.178800
vt 0.582912 0.228765
vt 0.569007 0.222943
vt 0.591389 0.171415
vt 0.249999 0.750000
vt 0.407612 0.961732
vt 0.400000 1.000000
vt 0.099999 1.000000
vt 0.092387 0.961732
vt 0.070710 0.929289
vt 0.038268 0.907612
vt -0.000000 0.900000
vt 0.429289 0.929289
vt 0.461731 0.907612
vt 0.499999 0.900000
vt 0.499999 0.600000
vt 0.461731 0.592388
vt 0.429288 0.570711
vt 0.407611 0.538268
vt 0.399999 0.500000
vt 0.099999 0.500001
vt 0.092387 0.538269
vt 0.070710 0.570711
vt 0.038268 0.592388
vt -0.000000 0.600000
vn 0.8315 0.0000 0.5556
vn 0.9808 0.0000 0.1951
vn 0.0000 1.0000 0.0000
vn 0.1951 0.0000 0.9808
vn 0.5556 0.0000 0.8315
vn -0.8315 0.0000 0.5556
vn -0.9808 0.0000 0.1951
vn -0.1951 0.0000 0.9808
vn -0.5556 0.0000 0.8315
vn 0.8315 0.0000 -0.5556
vn 0.9808 0.0000 -0.1951
vn 0.1951 0.0000 -0.9808
vn 0.5556 0.0000 -0.8315
vn -0.8315 0.0000 -0.5556
vn -0.9808 0.0000 -0.1951
vn -0.1951 0.0000 -0.9808
vn -0.5556 0.0000 -0.8315
s off
f 5/1/1 10/2/1 11/3/1
f 8/4/2 11/3/2 1/5/2
f 4/6/3 5/1/3 8/4/3
f 5/1/3 4/6/3 6/7/3
f 7/8/3 6/7/3 4/6/3
f 3/9/3 7/8/3 4/6/3
f 7/8/4 3/9/4 2/10/4
f 5/1/1 6/7/1 10/2/1
f 8/4/2 5/1/2 11/3/2
f 6/7/5 7/8/5 9/11/5
f 7/8/4 2/10/4 9/11/4
f 6/7/5 9/11/5 10/2/5
f 16/12/6 22/13/6 21/14/6
f 19/15/7 12/16/7 22/13/7
f 15/17/3 19/15/3 16/12/3
f 16/12/3 17/18/3 15/17/3
f 18/19/3 15/17/3 17/18/3
f 14/20/3 15/17/3 18/19/3
f 18/19/8 13/21/8 14/20/8
f 16/12/6 21/14/6 17/18/6
f 19/15/7 22/13/7 16/12/7
f 17/18/9 20/22/9 18/19/9
f 18/19/8 20/22/8 13/21/8
f 17/18/9 21/14/9 20/22/9
f 27/23/10 33/24/10 32/25/10
f 30/26/11 23/27/11 33/24/11
f 26/28/3 30/26/3 27/23/3
f 27/23/3 28/29/3 26/28/3
f 29/30/3 26/28/3 28/29/3
f 25/31/3 26/28/3 29/30/3
f 29/30/12 24/32/12 25/31/12
f 27/23/10 32/25/10 28/29/10
f 30/26/11 33/24/11 27/23/11
f 28/29/13 31/33/13 29/30/13
f 29/30/12 31/33/12 24/32/12
f 28/29/13 32/25/13 31/33/13
f 38/34/14 43/35/14 44/36/14
f 41/37/15 44/36/15 34/38/15
f 37/39/3 38/34/3 41/37/3
f 38/34/3 37/39/3 39/40/3
f 40/41/3 39/40/3 37/39/3
f 36/42/3 40/41/3 37/39/3
f 40/41/16 36/42/16 35/43/16
f 38/34/14 39/40/14 43/35/14
f 41/37/15 38/34/15 44/36/15
f 39/40/17 40/41/17 42/44/17
f 40/41/16 35/43/16 42/44/16
f 39/40/17 42/44/17 43/35/17
f 45/45/3 42/46/3 35/47/3
f 13/48/3 45/45/3 35/47/3
f 13/48/3 20/49/3 45/45/3
f 20/49/3 21/50/3 45/45/3
f 22/51/3 45/45/3 21/50/3
f 12/52/3 45/45/3 22/51/3
f 42/46/3 45/45/3 43/53/3
f 43/53/3 45/45/3 44/54/3
f 44/54/3 45/45/3 34/55/3
f 34/55/3 45/45/3 23/56/3
f 33/57/3 23/56/3 45/45/3
f 32/58/3 33/57/3 45/45/3
f 31/59/3 32/58/3 45/45/3
f 24/60/3 31/59/3 45/45/3
f 2/61/3 24/60/3 45/45/3
f 2/61/3 45/45/3 9/62/3
f 9/62/3 45/45/3 10/63/3
f 10/63/3 45/45/3 11/64/3
f 11/64/3 45/45/3 1/65/3
f 45/45/3 12/52/3 1/65/3
