# Blender v3.0.1 OBJ File: 'street_curve_full.blend'
# www.blender.org
o Circle
v -2.500000 0.000000 2.500000
v 2.500000 0.000000 -2.500000
v 2.500000 0.200000 -2.500000
v -2.500000 0.200000 -2.500000
v -2.500000 0.200000 2.500000
v 1.500000 0.100000 2.500000
v 2.500000 0.200000 2.500000
v 1.576121 0.200000 2.117316
v 1.792893 0.200000 1.792893
v 2.117317 0.200000 1.576120
v 2.500000 0.200000 1.500000
v 1.500000 0.200000 2.500000
v 2.500000 0.100000 1.500000
v 2.117317 0.100000 1.576120
v 1.792893 0.100000 1.792893
v 1.576121 0.100000 2.117316
v -1.500000 0.100000 2.500000
v -1.423141 0.200000 1.719639
v -1.195518 0.200000 0.969267
v -0.825878 0.200000 0.277719
v -0.328426 0.200000 -0.328427
v 0.277719 0.200000 -0.825879
v 0.969265 0.200000 -1.195518
v 1.719638 0.200000 -1.423141
v 2.500000 0.200000 -1.500000
v -1.500000 0.200000 2.500000
v 2.500000 0.100000 -1.500000
v 1.719638 0.100000 -1.423141
v 0.969265 0.100000 -1.195518
v 0.277719 0.100000 -0.825879
v -0.328426 0.100000 -0.328427
v -0.825878 0.100000 0.277719
v -1.195518 0.100000 0.969267
v -1.423141 0.100000 1.719639
v -2.500000 0.000000 -2.500000
vt 0.806305 0.238199
vt 0.851404 0.266997
vt 0.857004 0.254791
vt 0.748745 0.143031
vt 0.771555 0.195545
vt 0.783803 0.188018
vt 0.902709 0.283690
vt 0.906988 0.270541
vt 0.815427 0.227757
vt 0.762916 0.137097
vt 0.906988 0.128088
vt 0.711472 0.414476
vt 0.697555 0.361517
vt 0.690757 0.362938
vt 0.688989 0.307339
vt 0.686073 0.252514
vt 0.679051 0.252437
vt 0.690203 0.197010
vt 0.698345 0.141473
vt 0.691360 0.140101
vt 0.711748 0.086835
vt 0.729672 0.034479
vt 0.722996 0.032193
vt 0.729672 0.465268
vt 0.704899 0.416510
vt 0.682069 0.308062
vt 0.683180 0.196229
vt 0.704881 0.084807
vt 0.000000 0.000000
vt 0.000000 0.000000
vt 0.000000 0.000000
vt 0.723375 0.467541
vt 0.500000 0.000000
vt 0.000000 0.000000
vt 0.000000 0.062500
vt 0.500000 0.125000
vt 0.000000 0.125000
vt 0.000000 0.187500
vt 0.500000 0.250000
vt 0.000000 0.250000
vt 0.000000 0.312500
vt 0.500000 0.375000
vt 0.000000 0.375000
vt 0.500000 0.500000
vt 0.000000 0.437500
vt 0.000000 0.500000
vt 0.000000 0.000000
vt 0.000000 0.000000
vt 0.000000 0.000000
vt 0.000000 0.000000
vn -0.8315 0.0000 -0.5556
vn -0.1951 0.0000 -0.9808
vn -0.9808 0.0000 -0.1951
vn -0.5556 0.0000 -0.8315
vn 0.0000 1.0000 0.0000
vn 0.9569 0.0000 0.2903
vn 0.7730 0.0000 0.6344
vn 0.4714 0.0000 0.8819
vn 0.0980 0.0000 0.9952
vn 0.9952 0.0000 0.0980
vn 0.8819 0.0000 0.4714
vn 0.6344 0.0000 0.7730
vn 0.2903 0.0000 0.9569
vn 0.0000 0.0000 -1.0000
vn -1.0000 0.0000 0.0000
s off
f 15/1/1 16/2/1 8/3/1
f 13/4/2 14/5/2 10/6/2
f 16/2/3 6/7/3 12/8/3
f 14/5/4 15/1/4 9/9/4
f 11/10/5 10/6/5 7/11/5
f 10/6/5 9/9/5 7/11/5
f 9/9/5 8/3/5 7/11/5
f 8/3/5 12/8/5 7/11/5
f 34/12/6 33/13/6 19/14/6
f 32/15/7 31/16/7 21/17/7
f 30/18/8 29/19/8 23/20/8
f 28/21/9 27/22/9 25/23/9
f 17/24/10 34/12/10 18/25/10
f 33/13/11 32/15/11 20/26/11
f 31/16/12 30/18/12 22/27/12
f 29/19/13 28/21/13 24/28/13
f 26/29/5 4/30/5 5/31/5
f 21/17/5 22/27/5 4/30/5
f 20/26/5 4/30/5 19/14/5
f 26/32/5 18/25/5 4/30/5
f 15/1/1 8/3/1 9/9/1
f 13/4/2 10/6/2 11/10/2
f 16/2/3 12/8/3 8/3/3
f 14/5/4 9/9/4 10/6/4
f 34/12/6 19/14/6 18/25/6
f 32/15/7 21/17/7 20/26/7
f 30/18/8 23/20/8 22/27/8
f 28/21/9 25/23/9 24/28/9
f 17/24/10 18/25/10 26/32/10
f 33/13/11 20/26/11 19/14/11
f 31/16/12 22/27/12 21/17/12
f 29/19/13 24/28/13 23/20/13
f 4/30/5 20/26/5 21/17/5
f 18/25/5 19/14/5 4/30/5
f 13/33/5 27/34/5 28/35/5
f 14/36/5 13/33/5 28/35/5
f 14/36/5 29/37/5 30/38/5
f 15/39/5 14/36/5 30/38/5
f 15/39/5 31/40/5 32/41/5
f 16/42/5 32/41/5 33/43/5
f 6/44/5 34/45/5 17/46/5
f 14/36/5 28/35/5 29/37/5
f 15/39/5 30/38/5 31/40/5
f 15/39/5 32/41/5 16/42/5
f 34/45/5 6/44/5 33/43/5
f 33/43/5 6/44/5 16/42/5
f 23/20/5 4/30/5 22/27/5
f 24/28/5 4/30/5 23/20/5
f 25/23/5 4/30/5 24/28/5
f 25/23/5 3/47/5 4/30/5
f 2/48/14 4/30/14 3/47/14
f 35/49/14 4/30/14 2/48/14
f 4/30/15 35/49/15 5/31/15
f 5/31/15 35/49/15 1/50/15
