# Blender v3.0.0 OBJ File: 'street_straight.blend'
# www.blender.org
o Plane
v -2.500000 0.000000 -2.500000
v -2.500000 0.000000 2.500000
v -2.500000 0.100000 -1.500000
v -2.500000 0.100000 1.500000
v -2.500000 0.200000 -2.500000
v -2.500000 0.200000 1.500000
v -2.500000 0.200000 2.500000
v -2.500000 0.200000 -1.500000
v 2.500000 0.000000 -2.500000
v 2.500000 0.000000 2.500000
v 2.500000 0.100000 -1.500000
v 2.500000 0.100000 1.500000
v 2.500000 0.200000 -2.500000
v 2.500000 0.200000 2.500000
v 2.500000 0.200000 -1.500000
v 2.500000 0.200000 1.500000
vt 0.875000 0.015204
vt 0.870608 0.234797
vt 0.870608 0.015204
vt 0.923311 0.015204
vt 0.879392 0.234797
vt 0.879392 0.015204
vt 0.875000 0.234797
vt 0.826689 0.234797
vt 0.000000 0.500000
vt 0.000000 0.000000
vt 0.500000 0.000000
vt 0.875000 0.015204
vt 0.927703 0.234797
vt 0.923311 0.234797
vt 0.875000 0.234797
vt 0.822297 0.234797
vt 0.826689 0.015204
vt 0.927703 0.015203
vt 0.822297 0.015204
vt 0.500000 0.500000
vn 0.0000 0.0000 -1.0000
vn 0.0000 1.0000 0.0000
vn 0.0000 0.0000 1.0000
s off
f 9/1/1 5/2/1 13/3/1
f 16/4/2 7/5/2 14/6/2
f 2/7/3 14/6/3 7/5/3
f 8/8/2 13/3/2 5/2/2
f 11/9/2 3/10/2 4/11/2
f 2/7/3 10/12/3 14/6/3
f 16/4/1 4/13/1 6/14/1
f 9/1/1 1/15/1 5/2/1
f 3/16/3 15/17/3 8/8/3
f 16/4/2 6/14/2 7/5/2
f 8/8/2 15/17/2 13/3/2
f 16/4/1 12/18/1 4/13/1
f 3/16/3 11/19/3 15/17/3
f 11/9/2 4/11/2 12/20/2
