# Blender v3.0.0 OBJ File: 'street_curve.blend'
# www.blender.org
v 0.000000 0.000000 1.666667
v -1.666667 0.000000 0.000000
v -1.539799 0.000000 0.637806
v -1.178512 0.000000 1.178511
v -0.637806 0.000000 1.539799
v 0.000000 0.000000 8.333330
v -8.333330 0.000000 0.000000
v -8.173207 0.000000 1.625753
v -7.698992 0.000000 3.189029
v -6.928912 0.000000 4.629749
v -5.892555 0.000000 5.892553
v -4.629751 0.000000 6.928911
v -3.189027 0.000000 7.698993
v -1.625751 0.000000 8.173208
v 0.000000 0.000000 10.000000
v -10.000000 0.000000 0.000000
v -9.807853 0.000000 1.950904
v -9.238794 0.000000 3.826836
v -8.314697 0.000000 5.555701
v -7.071069 0.000000 7.071066
v -5.555703 0.000000 8.314696
v -3.826834 0.000000 9.238795
v -1.950902 0.000000 9.807853
v -1.539799 0.200000 0.637806
v -1.666667 0.200000 0.000000
v -1.178512 0.200000 1.178511
v -0.637806 0.200000 1.539799
v 0.000000 0.200000 1.666667
v -8.173207 0.200000 1.625753
v -8.333330 0.200000 0.000000
v -7.698992 0.200000 3.189029
v -6.928912 0.200000 4.629749
v -5.892555 0.200000 5.892553
v -4.629751 0.200000 6.928911
v -3.189027 0.200000 7.698993
v -1.625751 0.200000 8.173208
v 0.000000 0.200000 8.333330
v -10.000000 0.200000 0.000000
v -9.807853 0.200000 1.950904
v -9.238794 0.200000 3.826836
v -8.314697 0.200000 5.555701
v -7.071069 0.200000 7.071066
v -5.555703 0.200000 8.314696
v -3.826834 0.200000 9.238795
v -1.950902 0.200000 9.807853
v 0.000000 0.200000 10.000000
v 0.000000 0.200000 0.000000
v 0.000000 0.000000 4.888889
v -4.888889 0.000000 0.000000
v -4.794950 0.000000 0.953775
v -4.516744 0.000000 1.870898
v -4.064963 0.000000 2.716120
v -3.456967 0.000000 3.456966
v -2.716121 0.000000 4.064962
v -1.870897 0.000000 4.516745
v -0.953774 0.000000 4.794950
v 0.000000 0.000000 5.111111
v -5.111111 0.000000 0.000000
v -5.012902 0.000000 0.997129
v -4.722051 0.000000 1.955938
v -4.249734 0.000000 2.839580
v -3.614102 0.000000 3.614101
v -2.839581 0.000000 4.249733
v -1.955938 0.000000 4.722051
v -0.997128 0.000000 5.012903
vt 0.173953 0.883425
vt 0.221087 0.884438
vt 0.216730 0.897594
vt 0.430984 0.869134
vt 0.557851 0.851342
vt 0.558918 0.864471
vt 0.479868 0.771644
vt 0.478622 0.785613
vt 0.366041 0.770864
vt 0.367816 0.757145
vt 0.136041 0.859285
vt 0.179555 0.871242
vt 0.303168 0.862063
vt 0.431082 0.855932
vt 0.658896 0.709254
vt 0.547928 0.737405
vt 0.546741 0.723634
vt 0.106606 0.823578
vt 0.145111 0.848818
vt 0.174522 0.844028
vt 0.304445 0.848819
vt 0.432229 0.742813
vt 0.432242 0.728875
vt 0.087021 0.779661
vt 0.118798 0.815951
vt 0.721278 0.912362
vt 0.849891 0.883239
vt 0.851506 0.896526
vt 0.660637 0.722608
vt 0.687531 0.835348
vt 0.176443 0.830524
vt 0.316262 0.737721
vt 0.720211 0.899233
vt 0.822997 0.770499
vt 0.593443 0.903824
vt 0.710289 0.785297
vt 0.466805 0.896711
vt 0.594589 0.790704
vt 0.338803 0.878416
vt 0.101215 0.773609
vt 0.221087 0.765961
vt 0.594602 0.776767
vt 0.689147 0.848634
vt 0.709101 0.771526
vt 0.336882 0.891919
vt 0.465528 0.909955
vt 0.821256 0.757145
vt 0.593345 0.917026
vt 0.317508 0.723753
vt 0.203681 0.722972
vt 0.205456 0.709254
vt 0.489009 0.451640
vt 0.367791 0.349055
vt 0.503115 0.407968
vt 0.483694 0.497225
vt 0.344792 0.420260
vt 0.342126 0.569169
vt 0.336126 0.494583
vt 0.499908 0.587120
vt 0.487374 0.542971
vt 0.392734 0.413232
vt 0.230082 0.426717
vt 0.253337 0.353412
vt 0.378472 0.458192
vt 0.221576 0.503150
vt 0.377283 0.552067
vt 0.373254 0.505071
vt 0.249534 0.653644
vt 0.228144 0.579774
vt 0.647773 0.470944
vt 0.498955 0.453804
vt 0.512448 0.412031
vt 0.641439 0.500049
vt 0.497391 0.541164
vt 0.493871 0.497407
vt 0.646727 0.529363
vt 0.541745 0.477177
vt 0.388705 0.460363
vt 0.402348 0.417357
vt 0.535393 0.507124
vt 0.383715 0.505203
vt 0.387568 0.550156
vt 0.540985 0.537223
vt 0.400117 0.593493
vt 0.509380 0.583394
vt 0.362562 0.641151
vt 0.390402 0.597374
vt 0.295497 0.190274
vt 0.316945 0.254977
vt 0.302159 0.257918
vt 0.316945 0.125571
vt 0.310572 0.190274
vt 0.316945 0.190274
vt 0.338393 0.254977
vt 0.323607 0.257918
vt 0.323607 0.122630
vt 0.332020 0.190274
vt 0.302159 0.122630
vt 0.338393 0.125571
vn 0.1951 0.0000 -0.9808
vn 0.2903 0.0000 -0.9569
vn -0.9952 0.0000 0.0980
vn 0.5556 0.0000 -0.8315
vn 0.4714 0.0000 -0.8819
vn -0.0980 0.0000 0.9952
vn 0.8315 0.0000 -0.5556
vn 0.6344 0.0000 -0.7730
vn -0.2903 0.0000 0.9569
vn 0.9808 0.0000 -0.1951
vn 0.7730 0.0000 -0.6344
vn 0.0000 -1.0000 0.0000
vn -0.9569 0.0000 0.2903
vn 0.0980 0.0000 -0.9952
vn -0.8819 0.0000 0.4714
vn 0.9952 0.0000 -0.0980
vn -0.7730 0.0000 0.6344
vn 0.9569 0.0000 -0.2903
vn -0.6344 0.0000 0.7730
vn 0.8819 0.0000 -0.4714
vn -0.4714 0.0000 0.8819
s off
f 5/1/1 28/2/1 1/3/1
f 22/4/2 45/5/2 23/6/2
f 8/7/3 29/8/3 30/9/3
f 8/7/3 30/9/3 7/10/3
f 4/11/4 27/12/4 5/1/4
f 21/13/5 44/14/5 22/4/5
f 6/15/6 36/16/6 14/17/6
f 3/18/7 26/19/7 4/11/7
f 20/20/8 43/21/8 21/13/8
f 14/17/9 35/22/9 13/23/9
f 2/24/10 24/25/10 3/18/10
f 19/26/11 42/27/11 20/28/11
f 45/5/12 37/29/12 46/30/12
f 44/14/12 36/16/12 45/5/12
f 43/21/12 35/22/12 44/14/12
f 42/31/12 34/32/12 43/21/12
f 41/33/12 33/34/12 42/27/12
f 40/35/12 32/36/12 41/33/12
f 39/37/12 31/38/12 40/35/12
f 38/39/12 29/8/12 39/37/12
f 25/40/12 47/41/12 24/25/12
f 24/25/12 47/41/12 26/19/12
f 26/19/12 47/41/12 27/12/12
f 27/12/12 47/41/12 28/2/12
f 9/42/13 29/8/13 8/7/13
f 6/15/6 37/29/6 36/16/6
f 23/6/14 46/30/14 15/43/14
f 10/44/15 31/38/15 9/42/15
f 16/45/16 39/37/16 17/46/16
f 21/13/5 43/21/5 44/14/5
f 11/47/17 32/36/17 10/44/17
f 17/46/18 40/35/18 18/48/18
f 22/4/2 44/14/2 45/5/2
f 12/49/19 33/50/19 11/51/19
f 18/48/20 41/33/20 19/26/20
f 13/23/21 34/32/21 12/49/21
f 59/52/12 7/53/12 58/54/12
f 60/55/12 8/56/12 59/52/12
f 60/55/12 10/57/12 9/58/12
f 62/59/12 10/57/12 61/60/12
f 62/61/12 12/62/12 11/63/12
f 63/64/12 13/65/12 12/62/12
f 65/66/12 13/65/12 64/67/12
f 65/66/12 6/68/12 14/69/12
f 2/70/12 50/71/12 49/72/12
f 3/73/12 50/71/12 2/70/12
f 3/73/12 52/74/12 51/75/12
f 4/76/12 52/74/12 3/73/12
f 4/77/12 54/78/12 53/79/12
f 5/80/12 55/81/12 54/78/12
f 5/80/12 56/82/12 55/81/12
f 1/83/12 48/84/12 56/82/12
f 3/73/12 51/75/12 50/71/12
f 4/76/12 53/85/12 52/74/12
f 4/77/12 5/80/12 54/78/12
f 5/80/12 1/83/12 56/82/12
f 20/20/8 42/31/8 43/21/8
f 14/17/9 36/16/9 35/22/9
f 19/26/11 41/33/11 42/27/11
f 45/5/12 36/16/12 37/29/12
f 44/14/12 35/22/12 36/16/12
f 43/21/12 34/32/12 35/22/12
f 42/31/12 33/50/12 34/32/12
f 41/33/12 32/36/12 33/34/12
f 40/35/12 31/38/12 32/36/12
f 39/37/12 29/8/12 31/38/12
f 38/39/12 30/9/12 29/8/12
f 9/42/13 31/38/13 29/8/13
f 23/6/14 45/5/14 46/30/14
f 10/44/15 32/36/15 31/38/15
f 16/45/16 38/39/16 39/37/16
f 11/47/17 33/34/17 32/36/17
f 17/46/18 39/37/18 40/35/18
f 12/49/19 34/32/19 33/50/19
f 18/48/20 40/35/20 41/33/20
f 13/23/21 35/22/21 34/32/21
f 59/52/12 8/56/12 7/53/12
f 60/55/12 9/58/12 8/56/12
f 60/55/12 61/60/12 10/57/12
f 62/59/12 11/86/12 10/57/12
f 62/61/12 63/64/12 12/62/12
f 63/64/12 64/67/12 13/65/12
f 65/66/12 14/69/12 13/65/12
f 65/66/12 57/87/12 6/68/12
f 5/1/1 27/12/1 28/2/1
f 4/11/4 26/19/4 27/12/4
f 3/18/7 24/25/7 26/19/7
f 2/24/10 25/40/10 24/25/10
f 65/66/12 48/84/12 57/87/12
f 64/67/12 56/82/12 65/66/12
f 63/88/12 55/89/12 64/90/12
f 63/88/12 53/91/12 54/92/12
f 62/59/12 52/74/12 53/85/12
f 60/55/12 52/74/12 61/60/12
f 59/93/12 51/94/12 60/95/12
f 58/96/12 50/97/12 59/93/12
f 65/66/12 56/82/12 48/84/12
f 64/67/12 55/81/12 56/82/12
f 63/88/12 54/92/12 55/89/12
f 63/88/12 62/98/12 53/91/12
f 62/59/12 61/60/12 52/74/12
f 60/55/12 51/75/12 52/74/12
f 59/93/12 50/97/12 51/94/12
f 58/96/12 49/99/12 50/97/12
