# Blender v3.0.0 OBJ File: 'street_crossing.blend'
# www.blender.org
o Circle.001
v -5.000000 0.000000 5.000000
v -4.888889 0.000000 0.000000
v -2.100000 0.000000 0.000000
v -4.888889 0.000000 0.200000
v 0.000000 0.000000 2.000000
v -2.000000 0.000000 0.000000
v 0.000000 0.000000 5.111111
v -2.000000 0.200000 0.000000
v 0.000000 0.200000 0.000000
v -0.765367 0.200000 1.847759
v -1.414213 0.200000 1.414214
v -1.847759 0.200000 0.765367
v 0.000000 0.200000 2.000000
v -1.847759 0.000000 0.765367
v -1.414213 0.000000 1.414214
v -0.765367 0.000000 1.847759
v 0.000000 0.000000 2.100000
v -0.200000 0.000000 2.100000
v -0.200000 0.000000 5.111111
v -2.100000 0.000000 0.200000
v -5.111111 0.000000 10.000000
v -2.099999 0.000000 10.000000
v -5.111111 0.000000 9.800000
v 0.000000 0.000000 8.000000
v -1.999999 0.000000 10.000000
v -1.999999 0.200000 10.000000
v 0.000000 0.200000 10.000000
v -0.765367 0.200000 8.152241
v -1.414213 0.200000 8.585787
v -1.847758 0.200000 9.234632
v 0.000000 0.200000 8.000000
v -1.847758 0.000000 9.234632
v -1.414213 0.000000 8.585787
v -0.765367 0.000000 8.152241
v 0.000000 0.000000 7.900000
v -0.199999 0.000000 7.900000
v -2.099999 0.000000 9.800000
v -7.900000 0.000000 0.000000
v -10.000000 0.000000 2.000001
v -8.000000 0.000000 0.000000
v -10.000000 0.000000 4.888889
v -8.000000 0.200000 0.000000
v -10.000000 0.200000 0.000000
v -9.234632 0.200000 1.847760
v -8.585787 0.200000 1.414214
v -8.152242 0.200000 0.765367
v -10.000000 0.200000 2.000001
v -8.152242 0.000000 0.765367
v -8.585787 0.000000 1.414214
v -9.234632 0.000000 1.847760
v -10.000000 0.000000 2.100001
v -9.800000 0.000000 2.100001
v -9.800000 0.000000 4.888889
v -7.900000 0.000000 0.200000
v -7.900000 0.000000 10.000000
v -10.000000 0.000000 8.000000
v -8.000000 0.000000 10.000000
v -8.000000 0.200000 10.000000
v -10.000000 0.200000 10.000000
v -9.234632 0.200000 8.152241
v -8.585787 0.200000 8.585787
v -8.152242 0.200000 9.234632
v -10.000000 0.200000 8.000000
v -8.152242 0.000000 9.234632
v -8.585787 0.000000 8.585787
v -9.234632 0.000000 8.152241
v -10.000000 0.000000 7.900000
v -9.800000 0.000000 7.900000
v -7.900000 0.000000 9.800000
vt 0.589930 0.720616
vt 0.540182 0.736896
vt 0.584435 0.708639
vt 0.638974 0.705161
vt 0.634776 0.692259
vt 0.435646 0.342459
vt 0.605758 0.342459
vt 0.435646 0.354191
vt 0.638974 0.844940
vt 0.549133 0.747142
vt 0.518103 0.786134
vt 0.497608 0.836099
vt 0.483703 0.830277
vt 0.506085 0.778749
vt 0.728943 0.465644
vt 0.728943 0.459778
vt 0.717211 0.465644
vt 0.553502 0.275534
vt 0.553502 0.082202
vt 0.566836 0.275534
vt 0.566836 0.082202
vt 0.684047 0.450848
vt 0.645986 0.425416
vt 0.717211 0.635756
vt 0.435646 0.635756
vt 0.605758 0.354191
vt 0.620554 0.387355
vt 0.611624 0.342459
vt 0.115528 0.811143
vt 0.110033 0.823120
vt 0.065781 0.794863
vt 0.164572 0.826598
vt 0.160374 0.839500
vt 0.220169 0.262855
vt 0.220169 0.249521
vt 0.413502 0.262855
vt 0.164572 0.686820
vt 0.074731 0.784617
vt 0.043701 0.745625
vt 0.023206 0.695660
vt 0.009301 0.701482
vt 0.031683 0.753010
vt 0.070072 0.460611
vt 0.082017 0.460611
vt 0.070072 0.454638
vt 0.070073 0.633799
vt 0.082017 0.633799
vt 0.115781 0.445546
vt 0.154530 0.419655
vt 0.368675 0.633799
vt 0.413502 0.249521
vt 0.180422 0.380905
vt 0.368675 0.347141
vt 0.195486 0.335197
vt 0.195486 0.347141
vt 0.189514 0.335197
vt 0.270799 0.811143
vt 0.265304 0.823120
vt 0.221052 0.794863
vt 0.319844 0.826598
vt 0.315646 0.839500
vt 0.220169 0.249521
vt 0.220169 0.236188
vt 0.413502 0.249521
vt 0.319844 0.686820
vt 0.230002 0.784617
vt 0.198973 0.745625
vt 0.178478 0.695660
vt 0.164572 0.701482
vt 0.186955 0.753010
vt 0.265534 0.342459
vt 0.265534 0.354191
vt 0.259668 0.342459
vt 0.435646 0.342460
vt 0.435646 0.354191
vt 0.250738 0.387355
vt 0.225306 0.425416
vt 0.413502 0.236188
vt 0.187246 0.450848
vt 0.154081 0.635756
vt 0.142350 0.465644
vt 0.154081 0.465644
vt 0.142350 0.459778
vt 0.426070 0.715176
vt 0.376323 0.731457
vt 0.420575 0.703200
vt 0.475115 0.699722
vt 0.470917 0.686820
vt 0.349702 0.628596
vt 0.349701 0.463193
vt 0.361109 0.628596
vt 0.475115 0.839500
vt 0.385273 0.741702
vt 0.354244 0.780695
vt 0.333749 0.830660
vt 0.319844 0.824838
vt 0.342226 0.773310
vt 0.469476 0.343419
vt 0.463773 0.343419
vt 0.469476 0.354826
vt 0.553502 0.082202
vt 0.553502 0.275534
vt 0.540169 0.082202
vt 0.540169 0.275534
vt 0.455089 0.387072
vt 0.430362 0.424079
vt 0.634879 0.354826
vt 0.634879 0.628596
vt 0.361109 0.463193
vt 0.393355 0.448806
vt 0.349701 0.457490
vn -0.5556 0.0000 0.8315
vn -0.1951 0.0000 0.9808
vn 0.0000 -1.0000 0.0000
vn 0.0000 1.0000 0.0000
vn -0.9808 0.0000 0.1951
vn -0.8315 0.0000 0.5556
vn -0.5556 0.0000 -0.8315
vn -0.1951 0.0000 -0.9808
vn -0.9808 0.0000 -0.1951
vn -0.8315 0.0000 -0.5556
vn 0.5556 0.0000 0.8315
vn 0.1951 0.0000 0.9808
vn 0.9808 0.0000 0.1951
vn 0.8315 0.0000 0.5556
vn 0.5556 0.0000 -0.8315
vn 0.1951 0.0000 -0.9808
vn 0.9808 0.0000 -0.1951
vn 0.8315 0.0000 -0.5556
s off
f 10/1/1 15/2/1 16/3/1
f 13/4/2 16/3/2 5/5/2
f 2/6/3 3/7/3 4/8/3
f 9/9/4 10/1/4 13/4/4
f 10/1/4 9/9/4 11/10/4
f 12/11/4 11/10/4 9/9/4
f 8/12/4 12/11/4 9/9/4
f 12/11/5 8/12/5 6/13/5
f 10/1/1 11/10/1 15/2/1
f 13/4/2 10/1/2 16/3/2
f 11/10/6 12/11/6 14/14/6
f 17/15/4 5/16/4 18/17/4
f 7/18/4 17/19/4 19/20/4
f 17/19/4 18/21/4 19/20/4
f 16/22/4 15/23/4 19/24/4
f 15/23/4 1/25/4 19/24/4
f 16/22/4 18/17/4 5/16/4
f 12/11/5 6/13/5 14/14/5
f 11/10/6 14/14/6 15/2/6
f 3/7/3 20/26/3 4/8/3
f 15/23/3 4/8/3 14/27/3
f 4/8/4 1/25/4 15/23/4
f 19/24/4 18/17/4 16/22/4
f 3/7/3 6/28/3 20/26/3
f 6/28/4 20/26/4 14/27/4
f 14/27/3 4/8/3 20/26/3
f 28/29/7 34/30/7 33/31/7
f 31/32/8 24/33/8 34/30/8
f 21/34/3 23/35/3 22/36/3
f 27/37/4 31/32/4 28/29/4
f 28/29/4 29/38/4 27/37/4
f 30/39/4 27/37/4 29/38/4
f 26/40/4 27/37/4 30/39/4
f 30/39/9 25/41/9 26/40/9
f 28/29/7 33/31/7 29/38/7
f 31/32/8 34/30/8 28/29/8
f 29/38/10 32/42/10 30/39/10
f 35/43/4 36/44/4 24/45/4
f 7/46/4 19/47/4 35/43/4
f 35/43/4 19/47/4 36/44/4
f 34/48/4 19/47/4 33/49/4
f 33/49/4 19/47/4 1/50/4
f 34/48/4 24/45/4 36/44/4
f 30/39/9 32/42/9 25/41/9
f 29/38/10 33/31/10 32/42/10
f 22/36/3 23/35/3 37/51/3
f 33/49/3 32/52/3 23/53/3
f 23/53/4 33/49/4 1/50/4
f 19/47/4 34/48/4 36/44/4
f 22/54/3 37/55/3 25/56/3
f 25/56/4 32/52/4 37/55/4
f 32/52/3 37/55/3 23/53/3
f 44/57/11 50/58/11 49/59/11
f 47/60/12 39/61/12 50/58/12
f 2/62/3 4/63/3 38/64/3
f 43/65/4 47/60/4 44/57/4
f 44/57/4 45/66/4 43/65/4
f 46/67/4 43/65/4 45/66/4
f 42/68/4 43/65/4 46/67/4
f 46/67/13 40/69/13 42/68/13
f 44/57/11 49/59/11 45/66/11
f 47/60/12 50/58/12 44/57/12
f 45/66/14 48/70/14 46/67/14
f 51/71/4 52/72/4 39/73/4
f 41/74/4 53/75/4 51/71/4
f 51/71/4 53/75/4 52/72/4
f 50/76/4 53/75/4 49/77/4
f 49/77/4 53/75/4 1/25/4
f 50/76/4 39/73/4 52/72/4
f 46/67/13 48/70/13 40/69/13
f 45/66/14 49/59/14 48/70/14
f 38/64/3 4/63/3 54/78/3
f 49/77/3 48/79/3 4/80/3
f 4/80/4 49/77/4 1/25/4
f 53/75/4 50/76/4 52/72/4
f 38/81/3 54/82/3 40/83/3
f 40/83/4 48/79/4 54/82/4
f 48/79/3 54/82/3 4/80/3
f 60/84/15 65/85/15 66/86/15
f 63/87/16 66/86/16 56/88/16
f 21/89/3 55/90/3 23/91/3
f 59/92/4 60/84/4 63/87/4
f 60/84/4 59/92/4 61/93/4
f 62/94/4 61/93/4 59/92/4
f 58/95/4 62/94/4 59/92/4
f 62/94/17 58/95/17 57/96/17
f 60/84/15 61/93/15 65/85/15
f 63/87/16 60/84/16 66/86/16
f 61/93/18 62/94/18 64/97/18
f 67/98/4 56/99/4 68/100/4
f 41/101/4 67/102/4 53/103/4
f 67/102/4 68/104/4 53/103/4
f 66/105/4 65/106/4 53/107/4
f 65/106/4 1/108/4 53/107/4
f 66/105/4 68/100/4 56/99/4
f 62/94/17 57/96/17 64/97/17
f 61/93/18 64/97/18 65/85/18
f 55/90/3 69/109/3 23/91/3
f 65/106/3 23/91/3 64/110/3
f 23/91/4 1/108/4 65/106/4
f 53/107/4 68/100/4 66/105/4
f 55/90/3 57/111/3 69/109/3
f 57/111/4 69/109/4 64/110/4
f 64/110/3 23/91/3 69/109/3
