# Blender v3.0.0 OBJ File: 'tree.blend'
# www.blender.org
o Cube
v -0.200000 1.000000 0.200000
v -0.200000 -0.052811 0.200000
v -0.200000 1.000000 -0.200000
v -0.200000 -0.052811 -0.200000
v 0.200000 1.000000 0.200000
v 0.200000 -0.052811 0.200000
v 0.200000 1.000000 -0.200000
v 0.200000 -0.052811 -0.200000
v 0.379950 0.958540 -0.692876
v 0.379950 2.958540 -0.692876
v 0.692876 0.958540 0.379950
v 0.692876 2.958540 0.379950
v -0.692876 0.958540 -0.379950
v -0.692876 2.958540 -0.379950
v -0.379950 0.958540 0.692876
v -0.379950 2.958540 0.692876
vt 0.488974 0.832514
vt 0.388387 0.652497
vt 0.488974 0.652497
vt 0.584062 0.336966
vt 0.508450 0.137952
vt 0.584062 0.137952
vt 0.508450 0.336966
vt 0.432837 0.137952
vt 0.589562 0.832514
vt 0.589562 0.652497
vt 0.357225 0.336966
vt 0.281613 0.137952
vt 0.357225 0.137952
vt 0.432838 0.336966
vt 0.388387 0.832514
vt 0.287800 0.652497
vt 0.690149 0.832514
vt 0.690149 0.652497
vt 0.488974 0.551910
vt 0.388387 0.933101
vt 0.281613 0.336966
vt 0.287800 0.832514
vt 0.388387 0.551910
vt 0.488974 0.933101
vn 0.2800 0.0000 0.9600
vn 0.0000 0.0000 -1.0000
vn 1.0000 0.0000 0.0000
vn 0.9600 0.0000 -0.2800
vn -1.0000 0.0000 0.0000
vn 0.0000 0.0000 1.0000
vn -0.9600 0.0000 0.2800
vn -0.2800 0.0000 -0.9600
vn 0.0000 -1.0000 0.0000
vn 0.0000 1.0000 -0.0000
s off
f 12/1/1 15/2/1 11/3/1
f 3/4/2 8/5/2 4/6/2
f 7/7/3 6/8/3 8/5/3
f 10/9/4 11/3/4 9/10/4
f 1/11/5 4/12/5 2/13/5
f 5/14/6 2/13/6 6/8/6
f 16/15/7 13/16/7 15/2/7
f 14/17/8 9/10/8 13/18/8
f 15/2/9 9/19/9 11/3/9
f 12/1/10 14/20/10 16/15/10
f 12/1/1 16/15/1 15/2/1
f 3/4/2 7/7/2 8/5/2
f 7/7/3 5/14/3 6/8/3
f 10/9/4 12/1/4 11/3/4
f 1/11/5 3/21/5 4/12/5
f 5/14/6 1/11/6 2/13/6
f 16/15/7 14/22/7 13/16/7
f 14/17/8 10/9/8 9/10/8
f 15/2/9 13/23/9 9/19/9
f 12/1/10 10/24/10 14/20/10
