# Blender v3.3.0 OBJ File: 'tree.blend'
# www.blender.org
mtllib tree.mtl
o tree01
v -0.379950 0.958540 0.692876
v -0.379950 2.958540 0.692876
v -0.692876 0.958540 -0.379950
v -0.692876 2.958540 -0.379950
v 0.692876 0.958540 0.379950
v 0.692876 2.958540 0.379950
v 0.379950 0.958540 -0.692876
v 0.379950 2.958540 -0.692876
v 0.200000 1.000000 -0.200000
v 0.200000 -0.052811 -0.200000
v 0.200000 1.000000 0.200000
v 0.200000 -0.052811 0.200000
v -0.200000 1.000000 -0.200000
v -0.200000 -0.052811 -0.200000
v -0.200000 1.000000 0.200000
v -0.200000 -0.052811 0.200000
vt 0.191545 0.382985
vt 0.534157 0.191544
vt 0.534157 0.382985
vt 0.191545 0.574425
vt 0.534157 0.574425
vt 0.191545 0.191544
vt 0.534157 0.000104
vt 0.191545 0.765866
vt 0.534157 0.765866
vt 0.725598 0.382985
vt 0.000104 0.191544
vt 0.191545 0.000104
vt 0.725598 0.191544
vt 0.000104 0.382985
vt 0.968807 0.276700
vt 0.922805 0.155621
vt 0.968807 0.155621
vt 0.922805 0.276700
vt 0.876803 0.155621
vt 0.830800 0.276700
vt 0.784798 0.155621
vt 0.830800 0.155621
vt 0.876803 0.276700
vt 0.784798 0.276700
vt 0.784798 0.322702
vt 0.830800 0.322702
vt 0.784798 0.109619
vt 0.830800 0.109619
vn -0.2800 0.0000 -0.9600
vn -0.9600 0.0000 0.2800
vn 0.9600 0.0000 -0.2800
vn 0.2800 0.0000 0.9600
vn 0.0000 -1.0000 -0.0000
vn 0.0000 1.0000 0.0000
vn 0.0000 0.0000 1.0000
vn -1.0000 0.0000 0.0000
vn 1.0000 0.0000 0.0000
vn 0.0000 0.0000 -1.0000
usemtl tree
s off
f 4/1/1 7/2/1 3/3/1
f 2/4/2 3/3/2 1/5/2
f 8/6/3 5/7/3 7/2/3
f 6/8/4 1/5/4 5/9/4
f 7/2/5 1/10/5 3/3/5
f 4/1/6 6/11/6 8/6/6
f 4/1/1 8/6/1 7/2/1
f 2/4/2 4/1/2 3/3/2
f 8/6/3 6/12/3 5/7/3
f 6/8/4 2/4/4 1/5/4
f 7/2/5 5/13/5 1/10/5
f 4/1/6 2/14/6 6/11/6
f 11/15/7 16/16/7 12/17/7
f 15/18/8 14/19/8 16/16/8
f 9/20/9 12/21/9 10/22/9
f 13/23/10 10/22/10 14/19/10
f 11/15/7 15/18/7 16/16/7
f 15/18/8 13/23/8 14/19/8
f 9/20/9 11/24/9 12/21/9
f 13/23/10 9/20/10 10/22/10
f 9/20/6 15/25/6 11/24/6
f 9/20/6 13/26/6 15/25/6
f 10/22/5 16/27/5 14/28/5
f 10/22/5 12/21/5 16/27/5
o tree02
v 0.200000 1.929352 0.200000
v -0.200000 -0.052811 0.200000
v 0.200000 -0.052811 0.200000
v -0.200000 1.929352 0.200000
v -0.200000 -0.052811 -0.200000
v 0.200000 1.929352 -0.200000
v 0.200000 -0.052811 -0.200000
v -0.200000 1.929352 -0.200000
v 1.160376 4.194758 -0.843058
v 0.466026 4.062370 -1.434303
v 0.273921 4.742612 -0.843055
v 0.886448 4.742608 0.000001
v 0.000000 4.994428 0.000001
v -0.443231 4.194761 -1.364096
v -1.220095 4.062369 -0.886439
v -0.717149 4.742612 -0.521032
v -1.434301 4.194758 0.000001
v -1.220095 4.062369 0.886441
v -0.717149 4.742612 0.521034
v -0.443231 4.194761 1.364098
v 0.466026 4.062370 1.434305
v 0.273921 4.742612 0.843057
v 1.160376 4.194758 0.843060
v 1.508117 4.062363 0.000001
v 0.991082 3.308300 -1.364105
v 1.603606 3.308300 -0.521034
v -0.991082 3.308300 -1.364105
v 0.000000 3.308300 -1.686127
v -1.603606 3.308300 0.521036
v -1.603606 3.308300 -0.521034
v 0.000000 3.308300 1.686129
v -0.991082 3.308300 1.364107
v 1.603606 3.308300 0.521036
v 0.991082 3.308300 1.364107
v 0.443231 2.421839 -1.364097
v -0.466026 2.554230 -1.434304
v -1.160376 2.421841 -0.843059
v -1.508117 2.554237 0.000000
v -1.160376 2.421841 0.843059
v -0.466026 2.554230 1.434304
v 0.443231 2.421839 1.364097
v 1.220095 2.554230 0.886440
v 1.434301 2.421842 0.000000
v 1.220095 2.554230 -0.886440
v -0.273921 1.873987 -0.843056
v 0.717149 1.873988 -0.521033
v -0.886448 1.873992 0.000000
v -0.273921 1.873987 0.843056
v 0.717149 1.873988 0.521033
v 0.000000 1.622171 0.000000
vt 0.968807 0.276700
vt 0.922805 0.155621
vt 0.968807 0.155621
vt 0.922805 0.276700
vt 0.876803 0.155621
vt 0.830800 0.276700
vt 0.784798 0.155621
vt 0.830800 0.155621
vt 0.876803 0.276700
vt 0.784798 0.276700
vt 0.784798 0.322702
vt 0.830800 0.322702
vt 0.784798 0.109619
vt 0.830800 0.109619
vt 0.508298 0.544725
vt 0.508298 0.464107
vt 0.578116 0.504416
vt 0.578116 0.585034
vt 0.647934 0.544725
vt 0.508298 0.383489
vt 0.508298 0.302871
vt 0.578116 0.343180
vt 0.578116 0.423798
vt 0.647934 0.383489
vt 0.508298 0.222253
vt 0.508298 0.141636
vt 0.578116 0.181945
vt 0.578116 0.262562
vt 0.647934 0.222253
vt 0.508298 0.867197
vt 0.508298 0.786578
vt 0.578116 0.826887
vt 0.578116 0.907506
vt 0.647934 0.867196
vt 0.508298 0.705961
vt 0.508298 0.625343
vt 0.578116 0.665652
vt 0.578116 0.746269
vt 0.647934 0.705961
vt 0.438480 0.504416
vt 0.438480 0.585034
vt 0.438480 0.343180
vt 0.438480 0.423798
vt 0.438480 0.181945
vt 0.438480 0.262562
vt 0.438480 0.826887
vt 0.438480 0.907506
vt 0.508298 0.947815
vt 0.438480 0.665652
vt 0.438480 0.746269
vt 0.368663 0.464107
vt 0.368663 0.383489
vt 0.368663 0.302871
vt 0.368663 0.222253
vt 0.368663 0.141636
vt 0.368663 0.061018
vt 0.438480 0.101327
vt 0.368663 0.786578
vt 0.368663 0.705961
vt 0.368663 0.625343
vt 0.368663 0.544725
vt 0.298845 0.423798
vt 0.298845 0.504416
vt 0.298845 0.262562
vt 0.298845 0.343180
vt 0.298845 0.101327
vt 0.298845 0.181945
vt 0.298845 0.665652
vt 0.229027 0.625343
vt 0.298845 0.585034
vt 0.298845 0.746269
vt 0.298845 0.826887
vt 0.368663 0.867196
vt 0.229027 0.464107
vt 0.229027 0.302871
vt 0.229027 0.141636
vt 0.229027 0.786578
vn 0.0000 -0.0000 1.0000
vn -1.0000 -0.0000 0.0000
vn 1.0000 -0.0000 0.0000
vn 0.0000 0.0000 -1.0000
vn 0.0000 1.0000 0.0000
vn 0.0000 -1.0000 -0.0000
vn 0.4089 0.6617 -0.6284
vn 0.4911 0.7947 -0.3568
vn 0.2680 0.9435 -0.1947
vn -0.4713 0.6617 -0.5831
vn -0.1876 0.7947 -0.5773
vn -0.1024 0.9435 -0.3151
vn -0.7002 0.6617 0.2680
vn -0.6071 0.7947 0.0000
vn -0.3313 0.9435 0.0000
vn 0.0385 0.6617 0.7488
vn -0.1876 0.7947 0.5773
vn -0.1024 0.9435 0.3151
vn 0.7240 0.6617 0.1947
vn 0.4911 0.7947 0.3568
vn 0.2680 0.9435 0.1947
vn 0.5746 0.3304 -0.7488
vn 0.7947 0.1876 -0.5773
vn 0.8897 0.3304 -0.3151
vn -0.5346 0.3304 -0.7779
vn -0.3035 0.1876 -0.9342
vn -0.0247 0.3304 -0.9435
vn -0.9050 0.3304 0.2680
vn -0.9822 0.1876 0.0000
vn -0.9050 0.3304 -0.2680
vn -0.0247 0.3304 0.9435
vn -0.3035 0.1876 0.9342
vn -0.5346 0.3304 0.7779
vn 0.8897 0.3304 0.3151
vn 0.7947 0.1876 0.5773
vn 0.5746 0.3304 0.7488
vn 0.0247 -0.3304 -0.9435
vn 0.3035 -0.1876 -0.9342
vn 0.3066 0.1256 -0.9435
vn -0.8897 -0.3304 -0.3151
vn -0.7947 -0.1876 -0.5773
vn -0.8026 0.1256 -0.5831
vn -0.5746 -0.3304 0.7488
vn -0.7947 -0.1876 0.5773
vn -0.8026 0.1256 0.5831
vn 0.5346 -0.3304 0.7779
vn 0.3035 -0.1876 0.9342
vn 0.3066 0.1256 0.9435
vn 0.9050 -0.3304 -0.2680
vn 0.9822 -0.1876 0.0000
vn 0.9921 0.1256 0.0000
vn -0.0385 -0.6617 -0.7488
vn 0.1876 -0.7947 -0.5773
vn 0.4713 -0.6617 -0.5831
vn -0.7240 -0.6617 -0.1947
vn -0.4911 -0.7947 -0.3568
vn -0.4089 -0.6617 -0.6284
vn -0.4089 -0.6617 0.6284
vn -0.4911 -0.7947 0.3568
vn -0.7240 -0.6617 0.1947
vn 0.3313 -0.9435 0.0000
vn 0.6071 -0.7947 -0.0000
vn 0.7002 -0.6617 -0.2680
vn 0.4713 -0.6617 0.5831
vn 0.1876 -0.7947 0.5773
vn -0.0385 -0.6617 0.7488
vn 0.7240 0.6617 -0.1947
vn 0.0385 0.6617 -0.7488
vn -0.7002 0.6617 -0.2680
vn -0.4713 0.6617 0.5831
vn 0.4089 0.6617 0.6284
vn 0.8026 -0.1256 -0.5831
vn -0.3066 -0.1256 -0.9435
vn -0.9921 -0.1256 0.0000
vn -0.3066 -0.1256 0.9435
vn 0.8026 -0.1256 0.5831
vn 0.5346 -0.3304 -0.7779
vn -0.5746 -0.3304 -0.7488
vn -0.8897 -0.3304 0.3151
vn 0.0247 -0.3304 0.9435
vn 0.9050 -0.3304 0.2680
vn 0.1024 -0.9435 -0.3151
vn -0.2680 -0.9435 -0.1947
vn -0.2680 -0.9435 0.1947
vn 0.7002 -0.6617 0.2680
vn 0.1024 -0.9435 0.3151
usemtl tree
s 1
f 17/29/11 18/30/11 19/31/11
f 20/32/12 21/33/12 18/30/12
f 22/34/13 19/35/13 23/36/13
f 24/37/14 23/36/14 21/33/14
f 17/29/11 20/32/11 18/30/11
f 20/32/12 24/37/12 21/33/12
f 22/34/13 17/38/13 19/35/13
f 24/37/14 22/34/14 23/36/14
f 22/34/15 20/39/15 17/38/15
f 22/34/15 24/40/15 20/39/15
f 23/36/16 18/41/16 21/42/16
f 23/36/16 19/35/16 18/41/16
f 25/43/17 26/44/17 27/45/17
f 28/46/18 25/43/18 27/45/18
f 28/46/19 27/45/19 29/47/19
f 30/48/20 31/49/20 32/50/20
f 27/51/21 30/48/21 32/50/21
f 27/51/22 32/50/22 29/52/22
f 33/53/23 34/54/23 35/55/23
f 32/56/24 33/53/24 35/55/24
f 32/56/25 35/55/25 29/57/25
f 36/58/26 37/59/26 38/60/26
f 35/61/27 36/58/27 38/60/27
f 35/61/28 38/60/28 29/62/28
f 39/63/29 40/64/29 28/65/29
f 38/66/30 39/63/30 28/65/30
f 38/66/31 28/65/31 29/67/31
f 41/68/32 26/44/32 25/43/32
f 42/69/33 41/68/33 25/43/33
f 42/69/34 25/43/34 40/64/34
f 43/70/35 31/49/35 30/48/35
f 44/71/36 43/70/36 30/48/36
f 44/71/37 30/48/37 26/44/37
f 45/72/38 34/54/38 33/53/38
f 46/73/39 45/72/39 33/53/39
f 46/73/40 33/53/40 31/49/40
f 47/74/41 37/59/41 36/58/41
f 48/75/42 47/74/42 36/58/42
f 48/75/43 36/58/43 34/76/43
f 49/77/44 40/64/44 39/63/44
f 50/78/45 49/77/45 39/63/45
f 50/78/46 39/63/46 37/59/46
f 51/79/47 52/80/47 44/71/47
f 41/68/48 51/79/48 44/71/48
f 41/68/49 44/71/49 26/44/49
f 53/81/50 54/82/50 46/73/50
f 43/70/51 53/81/51 46/73/51
f 43/70/52 46/73/52 31/49/52
f 55/83/53 56/84/53 48/85/53
f 45/72/54 55/83/54 48/85/54
f 45/72/55 48/85/55 34/54/55
f 57/86/56 58/87/56 50/78/56
f 47/74/57 57/86/57 50/78/57
f 47/74/58 50/78/58 37/59/58
f 59/88/59 60/89/59 42/69/59
f 49/77/60 59/88/60 42/69/60
f 49/77/61 42/69/61 40/64/61
f 61/90/62 52/80/62 51/79/62
f 62/91/63 61/90/63 51/79/63
f 62/91/64 51/79/64 60/89/64
f 63/92/65 54/82/65 53/81/65
f 61/93/66 63/92/66 53/81/66
f 61/93/67 53/81/67 52/80/67
f 64/94/68 56/84/68 55/83/68
f 63/95/69 64/94/69 55/83/69
f 63/95/70 55/83/70 54/82/70
f 65/96/71 66/97/71 62/98/71
f 59/88/72 65/96/72 62/98/72
f 59/88/73 62/98/73 60/89/73
f 65/99/74 58/87/74 57/86/74
f 64/100/75 65/99/75 57/86/75
f 64/100/76 57/86/76 56/101/76
f 40/64/77 25/43/77 28/46/77
f 26/44/78 30/48/78 27/51/78
f 31/49/79 33/53/79 32/56/79
f 34/76/80 36/58/80 35/61/80
f 37/59/81 39/63/81 38/66/81
f 60/89/82 41/68/82 42/69/82
f 52/80/83 43/70/83 44/71/83
f 54/82/84 45/72/84 46/73/84
f 56/101/85 47/74/85 48/75/85
f 58/87/86 49/77/86 50/78/86
f 60/89/87 51/79/87 41/68/87
f 52/80/88 53/81/88 43/70/88
f 54/82/89 55/83/89 45/72/89
f 56/101/90 57/86/90 47/74/90
f 58/87/91 59/88/91 49/77/91
f 66/102/92 61/90/92 62/91/92
f 66/103/93 63/92/93 61/93/93
f 66/104/94 64/94/94 63/95/94
f 58/87/95 65/96/95 59/88/95
f 66/105/96 65/99/96 64/100/96
