# Blender v3.4.1 OBJ File: 'tree.blend'
# www.blender.org
mtllib tree.mtl
o tree
v -0.379950 0.958540 0.692876
v -0.379950 2.958540 0.692876
v -0.692876 0.958540 -0.379950
v -0.692876 2.958540 -0.379950
v 0.692876 0.958540 0.379950
v 0.692876 2.958540 0.379950
v 0.379950 0.958540 -0.692876
v 0.379950 2.958540 -0.692876
v 0.200000 1.000000 -0.200000
v 0.200000 -0.052811 -0.200000
v 0.200000 1.000000 0.200000
v 0.200000 -0.052811 0.200000
v -0.200000 1.000000 -0.200000
v -0.200000 -0.052811 -0.200000
v -0.200000 1.000000 0.200000
v -0.200000 -0.052811 0.200000
vt 0.191545 0.382985
vt 0.534157 0.191544
vt 0.534157 0.382985
vt 0.191545 0.574425
vt 0.534157 0.574425
vt 0.191545 0.191544
vt 0.534157 0.000104
vt 0.191545 0.765866
vt 0.534157 0.765866
vt 0.725598 0.382985
vt 0.000104 0.191544
vt 0.191545 0.000104
vt 0.725598 0.191544
vt 0.000104 0.382985
vt 0.968807 0.276700
vt 0.922805 0.155621
vt 0.968807 0.155621
vt 0.922805 0.276700
vt 0.876803 0.155621
vt 0.830800 0.276700
vt 0.784798 0.155621
vt 0.830800 0.155621
vt 0.876803 0.276700
vt 0.784798 0.276700
vt 0.784798 0.322702
vt 0.830800 0.322702
vt 0.784798 0.109619
vt 0.830800 0.109619
vn -0.2800 0.0000 -0.9600
vn -0.9600 0.0000 0.2800
vn 0.9600 0.0000 -0.2800
vn 0.2800 0.0000 0.9600
vn 0.0000 -1.0000 -0.0000
vn 0.0000 1.0000 0.0000
vn 0.0000 0.0000 1.0000
vn -1.0000 0.0000 0.0000
vn 1.0000 0.0000 0.0000
vn 0.0000 0.0000 -1.0000
usemtl tree
s off
f 4/1/1 7/2/1 3/3/1
f 2/4/2 3/3/2 1/5/2
f 8/6/3 5/7/3 7/2/3
f 6/8/4 1/5/4 5/9/4
f 7/2/5 1/10/5 3/3/5
f 4/1/6 6/11/6 8/6/6
f 4/1/1 8/6/1 7/2/1
f 2/4/2 4/1/2 3/3/2
f 8/6/3 6/12/3 5/7/3
f 6/8/4 2/4/4 1/5/4
f 7/2/5 5/13/5 1/10/5
f 4/1/6 2/14/6 6/11/6
f 11/15/7 16/16/7 12/17/7
f 15/18/8 14/19/8 16/16/8
f 9/20/9 12/21/9 10/22/9
f 13/23/10 10/22/10 14/19/10
f 11/15/7 15/18/7 16/16/7
f 15/18/8 13/23/8 14/19/8
f 9/20/9 11/24/9 12/21/9
f 13/23/10 9/20/10 10/22/10
f 9/20/6 15/25/6 11/24/6
f 9/20/6 13/26/6 15/25/6
f 10/22/5 16/27/5 14/28/5
f 10/22/5 12/21/5 16/27/5
