# Blender v3.2.2 OBJ File: 'tree.blend'
# www.blender.org
o tree_Cube
v -0.379950 0.958540 0.692876
v -0.379950 2.958540 0.692876
v -0.692876 0.958540 -0.379950
v -0.692876 2.958540 -0.379950
v 0.692876 0.958540 0.379950
v 0.692876 2.958540 0.379950
v 0.379950 0.958540 -0.692876
v 0.379950 2.958540 -0.692876
v 0.200000 1.000000 -0.200000
v 0.200000 -0.052811 -0.200000
v 0.200000 1.000000 0.200000
v 0.200000 -0.052811 0.200000
v -0.200000 1.000000 -0.200000
v -0.200000 -0.052811 -0.200000
v -0.200000 1.000000 0.200000
v -0.200000 -0.052811 0.200000
vt 0.697376 0.500000
vt 0.250049 0.749951
vt 0.250049 0.500000
vt 0.697376 0.250049
vt 0.250049 0.250049
vt 0.697376 0.749951
vt 0.250049 0.999903
vt 0.697376 0.000097
vt 0.250049 0.000097
vt 0.000097 0.500000
vt 0.947327 0.749951
vt 0.697376 0.999903
vt 0.000097 0.749951
vt 0.947327 0.500000
vt 0.975561 0.086234
vt 0.776547 0.161847
vt 0.776547 0.086234
vt 0.975561 0.161847
vt 0.776547 0.237459
vt 0.975561 0.313071
vt 0.776547 0.388684
vt 0.776547 0.313071
vt 0.975561 0.237459
vt 0.975561 0.388684
vn -0.2800 0.0000 -0.9600
vn -0.9600 0.0000 0.2800
vn 0.9600 0.0000 -0.2800
vn 0.2800 0.0000 0.9600
vn 0.0000 -1.0000 -0.0000
vn 0.0000 1.0000 0.0000
vn 0.0000 0.0000 1.0000
vn -1.0000 0.0000 0.0000
vn 1.0000 0.0000 0.0000
vn 0.0000 0.0000 -1.0000
s off
f 4/1/1 7/2/1 3/3/1
f 2/4/2 3/3/2 1/5/2
f 8/6/3 5/7/3 7/2/3
f 6/8/4 1/5/4 5/9/4
f 7/2/5 1/10/5 3/3/5
f 4/1/6 6/11/6 8/6/6
f 4/1/1 8/6/1 7/2/1
f 2/4/2 4/1/2 3/3/2
f 8/6/3 6/12/3 5/7/3
f 6/8/4 2/4/4 1/5/4
f 7/2/5 5/13/5 1/10/5
f 4/1/6 2/14/6 6/11/6
f 11/15/7 16/16/7 12/17/7
f 15/18/8 14/19/8 16/16/8
f 9/20/9 12/21/9 10/22/9
f 13/23/10 10/22/10 14/19/10
f 11/15/7 15/18/7 16/16/7
f 15/18/8 13/23/8 14/19/8
f 9/20/9 11/24/9 12/21/9
f 13/23/10 9/20/10 10/22/10
