# Blender v3.3.0 OBJ File: 'tree.blend'
# www.blender.org
mtllib tree.mtl
o tree01
v -0.379950 0.958540 0.692876
v -0.379950 2.958540 0.692876
v -0.692876 0.958540 -0.379950
v -0.692876 2.958540 -0.379950
v 0.692876 0.958540 0.379950
v 0.692876 2.958540 0.379950
v 0.379950 0.958540 -0.692876
v 0.379950 2.958540 -0.692876
v 0.200000 1.000000 -0.200000
v 0.200000 -0.052811 -0.200000
v 0.200000 1.000000 0.200000
v 0.200000 -0.052811 0.200000
v -0.200000 1.000000 -0.200000
v -0.200000 -0.052811 -0.200000
v -0.200000 1.000000 0.200000
v -0.200000 -0.052811 0.200000
vt 0.191545 0.382985
vt 0.534157 0.191544
vt 0.534157 0.382985
vt 0.191545 0.574425
vt 0.534157 0.574425
vt 0.191545 0.191544
vt 0.534157 0.000104
vt 0.191545 0.765866
vt 0.534157 0.765866
vt 0.725598 0.382985
vt 0.000104 0.191544
vt 0.191545 0.000104
vt 0.725598 0.191544
vt 0.000104 0.382985
vt 0.968807 0.276700
vt 0.922805 0.155621
vt 0.968807 0.155621
vt 0.922805 0.276700
vt 0.876803 0.155621
vt 0.830800 0.276700
vt 0.784798 0.155621
vt 0.830800 0.155621
vt 0.876803 0.276700
vt 0.784798 0.276700
vt 0.784798 0.322702
vt 0.830800 0.322702
vt 0.784798 0.109619
vt 0.830800 0.109619
vn -0.2800 0.0000 -0.9600
vn -0.9600 0.0000 0.2800
vn 0.9600 0.0000 -0.2800
vn 0.2800 0.0000 0.9600
vn 0.0000 -1.0000 -0.0000
vn 0.0000 1.0000 0.0000
vn 0.0000 0.0000 1.0000
vn -1.0000 0.0000 0.0000
vn 1.0000 0.0000 0.0000
vn 0.0000 0.0000 -1.0000
usemtl Tree
s off
f 4/1/1 7/2/1 3/3/1
f 2/4/2 3/3/2 1/5/2
f 8/6/3 5/7/3 7/2/3
f 6/8/4 1/5/4 5/9/4
f 7/2/5 1/10/5 3/3/5
f 4/1/6 6/11/6 8/6/6
f 4/1/1 8/6/1 7/2/1
f 2/4/2 4/1/2 3/3/2
f 8/6/3 6/12/3 5/7/3
f 6/8/4 2/4/4 1/5/4
f 7/2/5 5/13/5 1/10/5
f 4/1/6 2/14/6 6/11/6
f 11/15/7 16/16/7 12/17/7
f 15/18/8 14/19/8 16/16/8
f 9/20/9 12/21/9 10/22/9
f 13/23/10 10/22/10 14/19/10
f 11/15/7 15/18/7 16/16/7
f 15/18/8 13/23/8 14/19/8
f 9/20/9 11/24/9 12/21/9
f 13/23/10 9/20/10 10/22/10
f 9/20/6 15/25/6 11/24/6
f 9/20/6 13/26/6 15/25/6
f 10/22/5 16/27/5 14/28/5
f 10/22/5 12/21/5 16/27/5
o tree02
v 0.200000 1.929352 0.200000
v -0.200000 -0.052811 0.200000
v 0.200000 -0.052811 0.200000
v -0.200000 1.929352 0.200000
v -0.200000 -0.052811 -0.200000
v 0.200000 1.929352 -0.200000
v 0.200000 -0.052811 -0.200000
v -0.200000 1.929352 -0.200000
v 1.160376 4.194758 -0.843058
v 0.466026 4.062370 -1.434303
v 0.273921 4.742612 -0.843055
v 0.886448 4.742608 0.000001
v 0.000000 4.994428 0.000001
v -0.443231 4.194761 -1.364096
v -1.220095 4.062369 -0.886439
v -0.717149 4.742612 -0.521032
v -1.434301 4.194758 0.000001
v -1.220095 4.062369 0.886441
v -0.717149 4.742612 0.521034
v -0.443231 4.194761 1.364098
v 0.466026 4.062370 1.434305
v 0.273921 4.742612 0.843057
v 1.160376 4.194758 0.843060
v 1.508117 4.062363 0.000001
v 0.991082 3.308300 -1.364105
v 1.603606 3.308300 -0.521034
v -0.991082 3.308300 -1.364105
v 0.000000 3.308300 -1.686127
v -1.603606 3.308300 0.521036
v -1.603606 3.308300 -0.521034
v 0.000000 3.308300 1.686129
v -0.991082 3.308300 1.364107
v 1.603606 3.308300 0.521036
v 0.991082 3.308300 1.364107
v 0.443231 2.421839 -1.364097
v -0.466026 2.554230 -1.434304
v -1.160376 2.421841 -0.843059
v -1.508117 2.554237 0.000000
v -1.160376 2.421841 0.843059
v -0.466026 2.554230 1.434304
v 0.443231 2.421839 1.364097
v 1.220095 2.554230 0.886440
v 1.434301 2.421842 0.000000
v 1.220095 2.554230 -0.886440
v -0.273921 1.873987 -0.843056
v 0.717149 1.873988 -0.521033
v -0.886448 1.873992 0.000000
v -0.273921 1.873987 0.843056
v 0.717149 1.873988 0.521033
v 0.000000 1.622171 0.000000
vt 0.968807 0.276700
vt 0.922805 0.155621
vt 0.968807 0.155621
vt 0.922805 0.276700
vt 0.876803 0.155621
vt 0.830800 0.276700
vt 0.784798 0.155621
vt 0.830800 0.155621
vt 0.876803 0.276700
vt 0.784798 0.276700
vt 0.784798 0.322702
vt 0.830800 0.322702
vt 0.784798 0.109619
vt 0.830800 0.109619
vt 0.508298 0.544725
vt 0.508298 0.464107
vt 0.578116 0.504416
vt 0.578116 0.585034
vt 0.647934 0.544725
vt 0.508298 0.383489
vt 0.508298 0.302871
vt 0.578116 0.343180
vt 0.578116 0.423798
vt 0.647934 0.383489
vt 0.508298 0.222253
vt 0.508298 0.141636
vt 0.578116 0.181945
vt 0.578116 0.262562
vt 0.647934 0.222253
vt 0.508298 0.867197
vt 0.508298 0.786578
vt 0.578116 0.826887
vt 0.578116 0.907506
vt 0.647934 0.867196
vt 0.508298 0.705961
vt 0.508298 0.625343
vt 0.578116 0.665652
vt 0.578116 0.746269
vt 0.647934 0.705961
vt 0.438480 0.504416
vt 0.438480 0.585034
vt 0.438480 0.343180
vt 0.438480 0.423798
vt 0.438480 0.181945
vt 0.438480 0.262562
vt 0.438480 0.826887
vt 0.438480 0.907506
vt 0.508298 0.947815
vt 0.438480 0.665652
vt 0.438480 0.746269
vt 0.368663 0.464107
vt 0.368663 0.383489
vt 0.368663 0.302871
vt 0.368663 0.222253
vt 0.368663 0.141636
vt 0.368663 0.061018
vt 0.438480 0.101327
vt 0.368663 0.786578
vt 0.368663 0.705961
vt 0.368663 0.625343
vt 0.368663 0.544725
vt 0.298845 0.423798
vt 0.298845 0.504416
vt 0.298845 0.262562
vt 0.298845 0.343180
vt 0.298845 0.101327
vt 0.298845 0.181945
vt 0.298845 0.665652
vt 0.229027 0.625343
vt 0.298845 0.585034
vt 0.298845 0.746269
vt 0.298845 0.826887
vt 0.368663 0.867196
vt 0.229027 0.464107
vt 0.229027 0.302871
vt 0.229027 0.141636
vt 0.229027 0.786578
vn 0.0000 -0.0000 1.0000
vn -1.0000 -0.0000 0.0000
vn 1.0000 -0.0000 0.0000
vn 0.0000 0.0000 -1.0000
vn 0.0000 1.0000 0.0000
vn 0.0000 -1.0000 -0.0000
vn 0.6882 0.5257 -0.5000
vn 0.2764 0.4472 -0.8506
vn 0.1625 0.8507 -0.5000
vn 0.5257 0.8507 0.0000
vn -0.2629 0.5257 -0.8090
vn -0.7236 0.4472 -0.5257
vn -0.4253 0.8507 -0.3090
vn -0.8506 0.5257 0.0000
vn -0.7236 0.4472 0.5257
vn -0.4253 0.8507 0.3090
vn -0.2629 0.5257 0.8090
vn 0.2764 0.4472 0.8506
vn 0.1625 0.8507 0.5000
vn 0.6882 0.5257 0.5000
vn 0.8944 0.4472 0.0000
vn 0.5878 0.0000 -0.8090
vn 0.9511 -0.0000 -0.3090
vn -0.5878 0.0000 -0.8090
vn -0.9511 0.0000 0.3090
vn -0.9511 0.0000 -0.3090
vn -0.5878 -0.0000 0.8090
vn 0.9511 -0.0000 0.3090
vn 0.5878 -0.0000 0.8090
vn 0.2629 -0.5257 -0.8090
vn -0.2764 -0.4472 -0.8506
vn -0.6882 -0.5257 -0.5000
vn -0.8944 -0.4472 -0.0000
vn -0.6882 -0.5257 0.5000
vn -0.2764 -0.4472 0.8506
vn 0.2629 -0.5257 0.8090
vn 0.7236 -0.4472 0.5257
vn 0.8506 -0.5257 -0.0000
vn 0.7236 -0.4472 -0.5257
vn -0.1625 -0.8507 -0.5000
vn 0.4253 -0.8507 -0.3090
vn -0.5257 -0.8507 -0.0000
vn -0.1625 -0.8507 0.5000
vn 0.4253 -0.8507 0.3090
usemtl tree
s 1
f 17/29/11 18/30/11 19/31/11
f 20/32/12 21/33/12 18/30/12
f 22/34/13 19/35/13 23/36/13
f 24/37/14 23/36/14 21/33/14
f 17/29/11 20/32/11 18/30/11
f 20/32/12 24/37/12 21/33/12
f 22/34/13 17/38/13 19/35/13
f 24/37/14 22/34/14 23/36/14
f 22/34/15 20/39/15 17/38/15
f 22/34/15 24/40/15 20/39/15
f 23/36/16 18/41/16 21/42/16
f 23/36/16 19/35/16 18/41/16
f 25/43/17 26/44/18 27/45/19
f 28/46/20 25/43/17 27/45/19
f 28/46/20 27/45/19 29/47/15
f 30/48/21 31/49/22 32/50/23
f 27/51/19 30/48/21 32/50/23
f 27/51/19 32/50/23 29/52/15
f 33/53/24 34/54/25 35/55/26
f 32/56/23 33/53/24 35/55/26
f 32/56/23 35/55/26 29/57/15
f 36/58/27 37/59/28 38/60/29
f 35/61/26 36/58/27 38/60/29
f 35/61/26 38/60/29 29/62/15
f 39/63/30 40/64/31 28/65/20
f 38/66/29 39/63/30 28/65/20
f 38/66/29 28/65/20 29/67/15
f 41/68/32 26/44/18 25/43/17
f 42/69/33 41/68/32 25/43/17
f 42/69/33 25/43/17 40/64/31
f 43/70/34 31/49/22 30/48/21
f 44/71/14 43/70/34 30/48/21
f 44/71/14 30/48/21 26/44/18
f 45/72/35 34/54/25 33/53/24
f 46/73/36 45/72/35 33/53/24
f 46/73/36 33/53/24 31/49/22
f 47/74/11 37/59/28 36/58/27
f 48/75/37 47/74/11 36/58/27
f 48/75/37 36/58/27 34/76/25
f 49/77/38 40/64/31 39/63/30
f 50/78/39 49/77/38 39/63/30
f 50/78/39 39/63/30 37/59/28
f 51/79/40 52/80/41 44/71/14
f 41/68/32 51/79/40 44/71/14
f 41/68/32 44/71/14 26/44/18
f 53/81/42 54/82/43 46/73/36
f 43/70/34 53/81/42 46/73/36
f 43/70/34 46/73/36 31/49/22
f 55/83/44 56/84/45 48/85/37
f 45/72/35 55/83/44 48/85/37
f 45/72/35 48/85/37 34/54/25
f 57/86/46 58/87/47 50/78/39
f 47/74/11 57/86/46 50/78/39
f 47/74/11 50/78/39 37/59/28
f 59/88/48 60/89/49 42/69/33
f 49/77/38 59/88/48 42/69/33
f 49/77/38 42/69/33 40/64/31
f 61/90/50 52/80/41 51/79/40
f 62/91/51 61/90/50 51/79/40
f 62/91/51 51/79/40 60/89/49
f 63/92/52 54/82/43 53/81/42
f 61/93/50 63/92/52 53/81/42
f 61/93/50 53/81/42 52/80/41
f 64/94/53 56/84/45 55/83/44
f 63/95/52 64/94/53 55/83/44
f 63/95/52 55/83/44 54/82/43
f 65/96/54 66/97/16 62/98/51
f 59/88/48 65/96/54 62/98/51
f 59/88/48 62/98/51 60/89/49
f 65/99/54 58/87/47 57/86/46
f 64/100/53 65/99/54 57/86/46
f 64/100/53 57/86/46 56/101/45
f 40/64/31 25/43/17 28/46/20
f 26/44/18 30/48/21 27/51/19
f 31/49/22 33/53/24 32/56/23
f 34/76/25 36/58/27 35/61/26
f 37/59/28 39/63/30 38/66/29
f 60/89/49 41/68/32 42/69/33
f 52/80/41 43/70/34 44/71/14
f 54/82/43 45/72/35 46/73/36
f 56/101/45 47/74/11 48/75/37
f 58/87/47 49/77/38 50/78/39
f 60/89/49 51/79/40 41/68/32
f 52/80/41 53/81/42 43/70/34
f 54/82/43 55/83/44 45/72/35
f 56/101/45 57/86/46 47/74/11
f 58/87/47 59/88/48 49/77/38
f 66/102/16 61/90/50 62/91/51
f 66/103/16 63/92/52 61/93/50
f 66/104/16 64/94/53 63/95/52
f 58/87/47 65/96/54 59/88/48
f 66/105/16 65/99/54 64/100/53
